<?xml version="1.0" encoding="UTF-8" standalone="no"?>
<svg
   xmlns:dc="http://purl.org/dc/elements/1.1/"
   xmlns:cc="http://creativecommons.org/ns#"
   xmlns:rdf="http://www.w3.org/1999/02/22-rdf-syntax-ns#"
   xmlns:svg="http://www.w3.org/2000/svg"
   xmlns="http://www.w3.org/2000/svg"
   viewBox="0 0 1122.52 793.70135"
   height="793.70135"
   width="1122.52"
   xml:space="preserve"
   id="svg2"
   version="1.1"><metadata
     id="metadata8"><rdf:RDF><cc:Work
         rdf:about=""><dc:format>image/svg+xml</dc:format><dc:type
           rdf:resource="http://purl.org/dc/dcmitype/StillImage" /></cc:Work></rdf:RDF></metadata><defs
     id="defs6"><clipPath
       id="clipPath18"
       clipPathUnits="userSpaceOnUse"><path
         id="path16"
         d="M 0,595.276 H 841.89 V 0 H 0 Z" /></clipPath></defs><g
     transform="matrix(1.3333333,0,0,-1.3333333,0,793.70133)"
     id="g10"><g
       id="g12"><g
         clip-path="url(#clipPath18)"
         id="g14"><g
           transform="translate(266.1626,261.9502)"
           id="g20"><path
             id="path22"
             style="fill:#d3d2d2;fill-opacity:1;fill-rule:nonzero;stroke:none"
             d="m 0,0 c 0,-1.333 -13.752,-2.412 -30.715,-2.412 -16.964,0 -30.715,1.079 -30.715,2.412 0,1.332 13.751,2.412 30.715,2.412 C -13.752,2.412 0,1.332 0,0" /></g><g
           transform="translate(290.8711,250.0322)"
           id="g24"><path
             id="path26"
             style="fill:#261a44;fill-opacity:1;fill-rule:nonzero;stroke:none"
             d="m 0,0 c 0,1.637 1.061,2.505 2.646,2.505 1.112,0 2,-0.505 2.364,-1.394 L 4.98,1.051 4.303,0.768 4.232,0.788 C 3.959,1.344 3.374,1.697 2.646,1.697 1.616,1.697 0.869,1.102 0.869,-0.07 v -1.9 c 0,-1.202 0.747,-1.758 1.777,-1.758 0.829,0 1.425,0.334 1.708,0.94 l 0.07,0.02 0.657,-0.253 0.03,-0.06 C 4.778,-4.04 3.889,-4.535 2.646,-4.535 1.061,-4.535 0,-3.687 0,-2.061 Z" /></g><g
           transform="translate(298.5542,246.2246)"
           id="g28"><path
             id="path30"
             style="fill:#261a44;fill-opacity:1;fill-rule:nonzero;stroke:none"
             d="M 0,0 C 0.505,0 1.192,0.293 1.192,0.293 V 2 C 1.071,1.605 0.646,1.494 0.303,1.494 H 0.061 C -0.293,1.494 -0.818,1.363 -0.818,0.747 -0.818,0.303 -0.505,0 0,0 m -1.182,1.858 c 0.374,0.303 0.919,0.384 1.576,0.384 h 0.354 c 0.222,0 0.363,0.051 0.444,0.101 v 0.475 c 0,0.778 -0.475,0.959 -1.041,0.959 -0.394,0 -0.747,-0.1 -1,-0.302 l -0.08,0.009 -0.344,0.505 0.021,0.081 C -0.889,4.354 -0.384,4.505 0.162,4.505 1.192,4.505 2,4.091 2,2.97 V 0.384 L 2.252,-0.506 2.202,-0.566 1.586,-0.657 1.525,-0.616 1.232,0.11 c 0,0 -0.242,-0.838 -1.363,-0.838 -0.718,0 -1.536,0.374 -1.536,1.485 0,0.506 0.202,0.869 0.485,1.101" /></g><g
           transform="translate(301.7432,246.0225)"
           id="g32"><path
             id="path34"
             style="fill:#261a44;fill-opacity:1;fill-rule:nonzero;stroke:none"
             d="m 0,0 0.384,0.535 0.081,0.01 c 0.212,-0.182 0.737,-0.343 1.05,-0.343 0.526,0 1.01,0.161 1.01,0.787 0,1.032 -2.495,0.476 -2.495,2.233 0,1.041 0.92,1.485 1.819,1.485 0.464,0 0.909,-0.121 1.303,-0.394 L 3.172,4.242 2.778,3.707 H 2.708 C 2.485,3.858 2.152,3.979 1.869,3.979 c -0.596,0 -1.01,-0.282 -1.01,-0.757 0,-1.121 2.495,-0.454 2.495,-2.233 0,-1.171 -0.849,-1.514 -1.808,-1.514 -0.586,0 -1.152,0.171 -1.536,0.464 z" /></g><g
           transform="translate(306.4375,249.8809)"
           id="g36"><path
             id="path38"
             style="fill:#261a44;fill-opacity:1;fill-rule:nonzero;stroke:none"
             d="m 0,0 h -0.545 l -0.051,0.051 v 0.626 l 0.051,0.051 h 0.586 l 0.09,1.02 0.051,0.061 0.576,0.08 0.05,-0.04 V 0.728 H 2.485 L 2.536,0.677 2.344,0.051 2.273,0 H 0.808 v -2.435 c 0,-0.686 0.334,-1.202 0.889,-1.202 0.384,0 0.748,0.314 0.748,0.314 l 0.07,-0.01 0.314,-0.576 -0.021,-0.07 C 2.475,-4.212 2.081,-4.384 1.626,-4.384 0.707,-4.384 0,-3.758 0,-2.495 Z" /></g><g
           transform="translate(310.1123,252.7998)"
           id="g40"><path
             id="path42"
             style="fill:#261a44;fill-opacity:1;fill-rule:nonzero;stroke:none"
             d="M 0,0 0.05,0.061 0.757,0.162 0.808,0.122 V -6.02 c 0,-0.394 0.303,-0.455 0.455,-0.455 h 0.04 l 0.04,-0.05 -0.111,-0.636 -0.05,-0.051 H 1.101 C 0.828,-7.212 0,-7.131 0,-6.07 Z" /></g><g
           transform="translate(314.2422,248.4668)"
           id="g44"><path
             id="path46"
             style="fill:#261a44;fill-opacity:1;fill-rule:nonzero;stroke:none"
             d="m 0,0 c 0.556,0 1.051,0.182 1.051,0.808 0,0.353 -0.273,0.727 -0.95,0.727 -0.687,0 -1.08,-0.393 -1.08,-1.172 V 0.182 C -0.979,0.182 -0.545,0 0,0 m -1.788,0.475 c 0,1.131 0.778,1.788 1.919,1.788 1.293,0 1.768,-0.788 1.768,-1.495 0,-1 -0.707,-1.485 -1.667,-1.485 -0.989,0 -1.232,0.494 -1.262,0.566 l 0.051,-0.374 v -0.526 c 0,-0.777 0.444,-1.191 1.131,-1.191 0.606,0 0.909,0.201 1.101,0.535 l 0.07,0.02 L 1.93,-1.899 1.96,-1.96 C 1.717,-2.606 1.051,-2.97 0.192,-2.97 c -1.242,0 -1.98,0.596 -1.98,1.747 z" /></g><g
           transform="translate(365.2505,248.9717)"
           id="g48"><path
             id="path50"
             style="fill:#261a44;fill-opacity:1;fill-rule:nonzero;stroke:none"
             d="m 0,0 c 0.899,0 1.586,0.435 1.586,1.414 0,1.03 -0.758,1.274 -1.566,1.274 H -0.959 V 0.172 C -0.697,0.081 -0.354,0 0,0 m -1.808,3.414 0.05,0.051 H 0.02 c 0.637,0 1.182,-0.091 1.596,-0.333 0.535,-0.314 0.849,-0.869 0.849,-1.697 0,-1.182 -0.707,-2.193 -2.253,-2.193 -0.555,0 -1.04,0.152 -1.222,0.586 l 0.051,-0.403 V -3.303 L -1.01,-3.354 h -0.748 l -0.05,0.051 z" /></g><g
           transform="translate(370.1665,246.2246)"
           id="g52"><path
             id="path54"
             style="fill:#261a44;fill-opacity:1;fill-rule:nonzero;stroke:none"
             d="M 0,0 C 0.505,0 1.192,0.293 1.192,0.293 V 2 C 1.071,1.605 0.646,1.494 0.303,1.494 H 0.061 C -0.293,1.494 -0.818,1.363 -0.818,0.747 -0.818,0.303 -0.505,0 0,0 m -1.182,1.858 c 0.374,0.303 0.919,0.384 1.576,0.384 h 0.354 c 0.222,0 0.363,0.051 0.444,0.101 v 0.475 c 0,0.778 -0.475,0.959 -1.041,0.959 -0.394,0 -0.747,-0.1 -1,-0.302 l -0.08,0.009 -0.344,0.505 0.021,0.081 C -0.889,4.354 -0.384,4.505 0.162,4.505 1.192,4.505 2,4.091 2,2.97 V 0.384 L 2.252,-0.506 2.202,-0.566 1.586,-0.657 1.525,-0.616 1.232,0.11 c 0,0 -0.242,-0.838 -1.363,-0.838 -0.718,0 -1.536,0.374 -1.536,1.485 0,0.506 0.202,0.869 0.485,1.101" /></g><g
           transform="translate(373.0225,250.4971)"
           id="g56"><path
             id="path58"
             style="fill:#261a44;fill-opacity:1;fill-rule:nonzero;stroke:none"
             d="M 0,0 0.05,0.061 0.808,0.162 0.858,0.121 2.081,-3.505 2.222,-4.04 2.363,-3.505 3.182,-1.04 V 0 l 0.05,0.061 0.697,0.101 0.05,-0.041 v -1.293 l 0.758,-2.333 0.142,-0.535 0.141,0.535 1.172,3.515 0.06,0.051 0.819,0.101 0.03,-0.051 -1.838,-5 -0.071,-0.06 -0.687,0.14 -0.061,0.061 -0.777,2.364 -0.122,0.495 -0.131,-0.495 -0.818,-2.505 -0.071,-0.06 -0.677,0.131 -0.06,0.06 z" /></g><g
           transform="translate(381.0483,249.5576)"
           id="g60"><path
             id="path62"
             style="fill:#261a44;fill-opacity:1;fill-rule:nonzero;stroke:none"
             d="m 0,0 -0.252,0.949 0.05,0.061 0.617,0.092 0.06,-0.041 0.283,-0.707 c 0.04,0.131 0.333,0.818 1.414,0.818 0.889,0 1.606,-0.596 1.606,-1.748 v -3.313 l -0.05,-0.05 H 3.021 l -0.051,0.05 v 3.152 C 2.97,0.132 2.415,0.444 1.838,0.444 1.616,0.444 1,0.263 0.808,0.212 v -4.101 l -0.05,-0.05 H 0.051 L 0,-3.889 Z" /></g><g
           transform="translate(441.1162,246.3955)"
           id="g64"><path
             id="path66"
             style="fill:#261a44;fill-opacity:1;fill-rule:nonzero;stroke:none"
             d="M 0,0 C 0.727,0 1.464,0.313 1.464,1.232 1.464,2.142 0.737,2.476 0,2.476 H -1.111 V 0 Z m -0.061,3.253 c 0.697,0 1.354,0.192 1.354,1.011 0,0.847 -0.657,1 -1.354,1 h -1.05 V 3.253 Z M -1.96,5.99 -1.909,6.041 h 1.838 C 1.08,6.041 2.142,5.708 2.142,4.313 2.142,3.667 1.818,3.111 1.202,2.89 1.909,2.657 2.323,2.041 2.323,1.232 2.323,-0.171 1.252,-0.777 0.11,-0.777 h -2.019 l -0.051,0.05 z" /></g><g
           transform="translate(444.8398,250.4971)"
           id="g68"><path
             id="path70"
             style="fill:#261a44;fill-opacity:1;fill-rule:nonzero;stroke:none"
             d="M 0,0 0.051,0.061 0.758,0.162 0.808,0.121 V -4.828 L 0.758,-4.879 H 0.051 L 0,-4.828 Z m -0.061,1.313 v 0.838 l 0.05,0.051 H 0.828 L 0.879,2.151 V 1.313 L 0.828,1.263 h -0.839 z" /></g><g
           transform="translate(446.8887,246.0225)"
           id="g72"><path
             id="path74"
             style="fill:#261a44;fill-opacity:1;fill-rule:nonzero;stroke:none"
             d="m 0,0 0.384,0.535 0.081,0.01 C 0.677,0.363 1.202,0.202 1.516,0.202 c 0.525,0 1.009,0.161 1.009,0.787 0,1.032 -2.495,0.476 -2.495,2.233 0,1.041 0.919,1.485 1.819,1.485 0.464,0 0.909,-0.121 1.302,-0.394 L 3.172,4.242 2.778,3.707 H 2.707 C 2.485,3.858 2.151,3.979 1.869,3.979 1.272,3.979 0.858,3.697 0.858,3.222 c 0,-1.121 2.496,-0.454 2.496,-2.233 0,-1.171 -0.849,-1.514 -1.808,-1.514 -0.586,0 -1.151,0.171 -1.536,0.464 z" /></g><g
           transform="translate(451.4521,252.7998)"
           id="g76"><path
             id="path78"
             style="fill:#261a44;fill-opacity:1;fill-rule:nonzero;stroke:none"
             d="M 0,0 0.051,0.061 0.758,0.162 0.809,0.122 V -2.414 L 0.758,-2.858 c 0.081,0.181 0.434,0.788 1.454,0.788 0.89,0 1.556,-0.596 1.556,-1.748 V -7.131 L 3.718,-7.182 H 3.011 L 2.96,-7.131 v 3.152 c 0,0.869 -0.495,1.181 -1.091,1.181 -0.223,0 -0.879,-0.181 -1.06,-0.232 V -7.131 L 0.758,-7.182 H 0.051 L 0,-7.131 Z" /></g><g
           transform="translate(458.4893,246.2246)"
           id="g80"><path
             id="path82"
             style="fill:#261a44;fill-opacity:1;fill-rule:nonzero;stroke:none"
             d="M 0,0 C 0.707,0 1.132,0.414 1.132,1.191 V 2.596 C 1.132,3.373 0.707,3.777 0,3.777 -0.727,3.777 -1.131,3.373 -1.131,2.596 V 1.191 C -1.131,0.414 -0.727,0 0,0 m -1.939,2.757 c 0,1.132 0.828,1.748 1.939,1.748 1.111,0 1.939,-0.616 1.939,-1.748 V 1.02 c 0,-1.131 -0.828,-1.748 -1.939,-1.748 -1.111,0 -1.939,0.617 -1.939,1.748 z" /></g><g
           transform="translate(463.668,246.2246)"
           id="g84"><path
             id="path86"
             style="fill:#261a44;fill-opacity:1;fill-rule:nonzero;stroke:none"
             d="m 0,0 c 0.616,0 1.07,0.414 1.07,1.191 v 1.405 c 0,0.869 -0.505,1.181 -1.08,1.181 -0.222,0 -0.839,-0.181 -1.03,-0.232 V 1.07 C -1.04,0.354 -0.687,0 0,0 m -1.04,-0.839 v -1.889 l -0.051,-0.06 -0.707,-0.102 -0.051,0.041 v 6.182 l -0.252,0.949 0.05,0.061 0.616,0.092 0.061,-0.041 0.283,-0.707 c 0.04,0.131 0.333,0.818 1.414,0.818 0.889,0 1.556,-0.596 1.556,-1.748 V 1.02 c 0,-1.131 -0.788,-1.748 -1.849,-1.748 -0.414,0 -0.818,0.131 -1.111,0.354 z" /></g><g
           transform="translate(515.6221,246.3047)"
           id="g88"><path
             id="path90"
             style="fill:#261a44;fill-opacity:1;fill-rule:nonzero;stroke:none"
             d="M 0,0 C 1.03,0 1.788,0.556 1.788,1.758 V 3.657 C 1.788,4.829 1.03,5.425 0,5.425 -1.03,5.425 -1.788,4.829 -1.788,3.657 V 1.758 C -1.788,0.556 -1.03,0 0,0 m -2.657,3.728 c 0,1.636 1.071,2.504 2.657,2.504 1.586,0 2.656,-0.868 2.656,-2.504 V 1.667 c 0,-1.586 -1.02,-2.424 -2.514,-2.475 -0.051,-0.04 -0.091,-0.171 -0.091,-0.383 0,-0.395 0.221,-0.658 0.595,-0.658 H 1.454 L 1.505,-1.898 V -2.696 L 1.454,-2.747 H 0.646 c -0.878,0 -1.262,0.626 -1.262,1.101 0,0.364 0.172,0.676 0.474,0.838 -1.504,0.051 -2.515,0.899 -2.515,2.475 z" /></g><g
           transform="translate(519.708,250.4971)"
           id="g92"><path
             id="path94"
             style="fill:#261a44;fill-opacity:1;fill-rule:nonzero;stroke:none"
             d="M 0,0 0.051,0.061 0.758,0.162 0.809,0.121 v -3.172 c 0,-0.888 0.495,-1.221 1.07,-1.221 0.273,0 1.03,0.282 1.03,0.282 V 0 L 2.96,0.061 3.667,0.162 3.718,0.121 v -4.01 L 3.97,-4.778 3.92,-4.839 3.304,-4.93 3.243,-4.889 2.95,-4.162 C 2.829,-4.535 2.455,-5 1.546,-5 0.646,-5 0,-4.384 0,-3.223 Z" /></g><g
           transform="translate(526.6045,248.4668)"
           id="g96"><path
             id="path98"
             style="fill:#261a44;fill-opacity:1;fill-rule:nonzero;stroke:none"
             d="m 0,0 c 0.556,0 1.051,0.182 1.051,0.808 0,0.353 -0.273,0.727 -0.949,0.727 -0.688,0 -1.081,-0.393 -1.081,-1.172 V 0.182 C -0.979,0.182 -0.545,0 0,0 m -1.788,0.475 c 0,1.131 0.778,1.788 1.92,1.788 1.293,0 1.767,-0.788 1.767,-1.495 0,-1 -0.707,-1.485 -1.667,-1.485 -0.99,0 -1.232,0.494 -1.262,0.566 l 0.051,-0.374 v -0.526 c 0,-0.777 0.444,-1.191 1.13,-1.191 0.607,0 0.91,0.201 1.102,0.535 l 0.07,0.02 L 1.93,-1.899 1.96,-1.96 C 1.718,-2.606 1.051,-2.97 0.192,-2.97 c -1.243,0 -1.98,0.596 -1.98,1.747 z" /></g><g
           transform="translate(531.4199,248.4668)"
           id="g100"><path
             id="path102"
             style="fill:#261a44;fill-opacity:1;fill-rule:nonzero;stroke:none"
             d="m 0,0 c 0.556,0 1.051,0.182 1.051,0.808 0,0.353 -0.273,0.727 -0.949,0.727 -0.688,0 -1.081,-0.393 -1.081,-1.172 V 0.182 C -0.979,0.182 -0.545,0 0,0 m -1.788,0.475 c 0,1.131 0.778,1.788 1.92,1.788 1.293,0 1.767,-0.788 1.767,-1.495 0,-1 -0.707,-1.485 -1.667,-1.485 -0.99,0 -1.232,0.494 -1.262,0.566 l 0.051,-0.374 v -0.526 c 0,-0.777 0.444,-1.191 1.13,-1.191 0.607,0 0.91,0.201 1.102,0.535 l 0.07,0.02 L 1.93,-1.899 1.96,-1.96 C 1.718,-2.606 1.051,-2.97 0.192,-2.97 c -1.243,0 -1.98,0.596 -1.98,1.747 z" /></g><g
           transform="translate(534.6494,249.5576)"
           id="g104"><path
             id="path106"
             style="fill:#261a44;fill-opacity:1;fill-rule:nonzero;stroke:none"
             d="M 0,0 -0.252,0.949 -0.202,1.01 0.414,1.102 0.475,1.061 0.758,0.354 c 0.04,0.131 0.333,0.818 1.414,0.818 0.889,0 1.606,-0.596 1.606,-1.748 v -3.313 l -0.05,-0.05 H 3.021 l -0.051,0.05 v 3.152 C 2.97,0.132 2.414,0.444 1.839,0.444 1.616,0.444 1,0.263 0.809,0.212 V -3.889 L 0.758,-3.939 H 0.051 L 0,-3.889 Z" /></g><g
           transform="translate(483.918,261.9502)"
           id="g108"><path
             id="path110"
             style="fill:#d3d2d2;fill-opacity:1;fill-rule:nonzero;stroke:none"
             d="m 0,0 c 0,-1.333 -13.751,-2.412 -30.715,-2.412 -16.963,0 -30.715,1.079 -30.715,2.412 0,1.332 13.752,2.412 30.715,2.412 C -13.751,2.412 0,1.332 0,0" /></g><g
           transform="translate(405.292,261.9502)"
           id="g112"><path
             id="path114"
             style="fill:#d3d2d2;fill-opacity:1;fill-rule:nonzero;stroke:none"
             d="m 0,0 c 0,-1.333 -13.752,-2.412 -30.715,-2.412 -16.964,0 -30.715,1.079 -30.715,2.412 0,1.332 13.751,2.412 30.715,2.412 C -13.752,2.412 0,1.332 0,0" /></g><g
           transform="translate(383.2275,309.8364)"
           id="g116"><path
             id="path118"
             style="fill:#8a5e23;fill-opacity:1;fill-rule:nonzero;stroke:none"
             d="M 0,0 H -7.669 -9.631 -17.3 c -0.891,0 -0.891,-0.754 -0.891,-0.754 0.356,-1.283 1.782,-1.357 1.782,-1.357 h 15.518 c 0,0 1.426,0.074 1.783,1.357 0,0 0,0.754 -0.892,0.754" /></g><g
           transform="translate(381.6338,307.8008)"
           id="g120"><path
             id="path122"
             style="fill:#ffffff;fill-opacity:1;fill-rule:nonzero;stroke:none"
             d="M 0,0 C 0,0 -7.839,-1.106 -14.113,0 -13.918,-0.067 -7.521,-2.157 0,0" /></g><g
           transform="translate(380.4673,308.2593)"
           id="g124"><path
             id="path126"
             style="fill:#8a5e23;fill-opacity:1;fill-rule:nonzero;stroke:none"
             d="m 0,0 c 0,-11.574 2.859,-15.025 2.859,-15.025 h -17.497 c 0,0 2.859,3.451 2.859,15.025 z" /></g><g
           transform="translate(372.0415,307.3623)"
           id="g128"><path
             id="path130"
             style="fill:#ffffff;fill-opacity:1;fill-rule:nonzero;stroke:none"
             d="m 0,0 c 0,0 0.734,-6.113 -1.757,-12.629 h -1.231 c 0,0 2.851,5.152 2.604,12.612 z" /></g><g
           transform="translate(382.3076,315.7305)"
           id="g132"><path
             id="path134"
             style="fill:#8a5e23;fill-opacity:1;fill-rule:nonzero;stroke:none"
             d="m 0,0 c 0,-4.269 -3.46,-7.732 -7.731,-7.732 -4.269,0 -7.729,3.463 -7.729,7.732 0,4.269 3.46,7.729 7.729,7.729 C -3.46,7.729 0,4.269 0,0" /></g><g
           transform="translate(377.9585,319.4536)"
           id="g136"><path
             id="path138"
             style="fill:#ffffff;fill-opacity:1;fill-rule:nonzero;stroke:none"
             d="m 0,0 c -0.82,0 -1.541,-0.395 -2.007,-0.994 0.324,0.149 0.682,0.238 1.062,0.238 1.409,0 2.55,-1.142 2.55,-2.55 0,-0.588 -0.207,-1.124 -0.543,-1.556 C 1.938,-4.458 2.55,-3.577 2.55,-2.55 2.55,-1.142 1.408,0 0,0" /></g><g
           transform="translate(381.6338,310.2178)"
           id="g140"><path
             id="path142"
             style="fill:#ffffff;fill-opacity:1;fill-rule:nonzero;stroke:none"
             d="M 0,0 C 0,0 -7.839,-1.106 -14.113,0 -13.918,-0.067 -7.521,-2.157 0,0" /></g><g
           transform="translate(394.3696,272.0762)"
           id="g144"><path
             id="path146"
             style="fill:#8a5e23;fill-opacity:1;fill-rule:nonzero;stroke:none"
             d="m 0,0 c 0,0 -9.675,2.944 -8.833,16.825 0,0 4.626,4.628 0,4.628 -3.684,0 -8.96,-0.266 -10.96,-0.375 -1.998,0.109 -7.274,0.375 -10.959,0.375 -4.625,0 0,-4.628 0,-4.628 C -29.911,2.944 -39.585,0 -39.585,0 c -2.735,-2.733 0,-6.31 0,-6.31 H 0 c 0,0 2.734,3.577 0,6.31" /></g><g
           transform="translate(394.9644,265.8672)"
           id="g148"><path
             id="path150"
             style="fill:#8a5e23;fill-opacity:1;fill-rule:nonzero;stroke:none"
             d="m 0,0 -19.737,0.759 v 0.05 l -0.649,-0.025 -0.649,0.025 V 0.759 L -40.773,0 c -6.078,0 0,-4.86 0,-4.86 H 0 C 0,-4.86 6.078,0 0,0" /></g><g
           transform="translate(385.5361,288.9014)"
           id="g152"><path
             id="path154"
             style="fill:#ffffff;fill-opacity:1;fill-rule:nonzero;stroke:none"
             d="m 0,0 h -18.945 c 0,0 15.697,-0.203 18.677,-1.991 2.981,-1.787 1.193,0.796 1.193,0.796 z" /></g><g
           transform="translate(354.7842,265.7666)"
           id="g156"><path
             id="path158"
             style="fill:#ffffff;fill-opacity:1;fill-rule:nonzero;stroke:none"
             d="m 0,0 21.146,-0.514 c 0,0 -20.066,0.595 -21.856,2.186 -1.788,1.59 -1.191,-0.794 -1.191,-0.794 z" /></g><g
           transform="translate(394.3696,272.0762)"
           id="g160"><path
             id="path162"
             style="fill:#ffffff;fill-opacity:1;fill-rule:nonzero;stroke:none"
             d="m 0,0 c 0,0 -22.583,-4.303 -39.585,0 0,0 17.967,-5.829 39.585,0" /></g><g
           transform="translate(381.8901,293.665)"
           id="g164"><path
             id="path166"
             style="fill:#ffffff;fill-opacity:1;fill-rule:nonzero;stroke:none"
             d="m 0,0 h -19.06 l 0.688,2.186 c 0,0 2.278,-1.987 18.372,-2.186" /></g><g
           transform="translate(459.7314,322.4438)"
           id="g168"><path
             id="path170"
             style="fill:#8a5e23;fill-opacity:1;fill-rule:nonzero;stroke:none"
             d="M 0,0 -6.196,0.538 V 0.583 L -6.528,0.561 -6.861,0.583 V 0.538 L -13.057,0 c 0,-16.137 -4.649,-30.33 -4.649,-30.33 H 4.651 C 4.651,-30.33 0,-16.137 0,0" /></g><g
           transform="translate(457.8135,320.7173)"
           id="g172"><path
             id="path174"
             style="fill:#ffffff;fill-opacity:1;fill-rule:nonzero;stroke:none"
             d="m 0,0 h -0.604 c 0,0 -1.472,-13.46 1.892,-24.397 h 2.314 c 0,0 -3.997,7.921 -3.602,24.397" /></g><path
           id="path176"
           style="fill:#8a5e23;fill-opacity:1;fill-rule:nonzero;stroke:none"
           d="m 461.467,320.5 h -16.526 v 1.75 h 16.526 z" /><g
           transform="translate(463.0635,321.7324)"
           id="g178"><path
             id="path180"
             style="fill:#ffffff;fill-opacity:1;fill-rule:nonzero;stroke:none"
             d="m 0,0 c 0,0 -10.953,1.545 -19.721,0 0,0 8.992,3.078 19.721,0" /></g><g
           transform="translate(461.8545,323.8491)"
           id="g182"><path
             id="path184"
             style="fill:#8a5e23;fill-opacity:1;fill-rule:nonzero;stroke:none"
             d="m 0,0 h -7.67 -1.962 -7.67 c -0.89,0 -0.89,-0.754 -0.89,-0.754 0.356,-1.284 1.782,-1.358 1.782,-1.358 h 15.519 c 0,0 1.424,0.074 1.782,1.358 0,0 0,0.754 -0.891,0.754" /></g><g
           transform="translate(453.1885,321.8921)"
           id="g186"><path
             id="path188"
             style="fill:#8a5e23;fill-opacity:1;fill-rule:nonzero;stroke:none"
             d="m 0,0 h -3.536 c 0,0 -2.394,4.082 -2.636,8.051 0,0 -0.841,6.349 6.172,8.774 H 0.029 C 7.042,14.4 6.201,8.051 6.201,8.051 5.96,4.082 3.565,0 3.565,0 H 0.029 Z" /></g><g
           transform="translate(453.2148,338.2656)"
           id="g190"><path
             id="path192"
             style="fill:#8a5e23;fill-opacity:1;fill-rule:nonzero;stroke:none"
             d="m 0,0 h -0.613 c 0,0 -0.417,0.682 -0.458,1.344 0,0 -0.345,1.466 1.071,1.466 H 0.008 C 1.213,2.81 1.081,1.344 1.081,1.344 1.038,0.682 0.623,0 0.623,0 H 0.008 Z" /></g><g
           transform="translate(460.2607,324.3057)"
           id="g194"><path
             id="path196"
             style="fill:#ffffff;fill-opacity:1;fill-rule:nonzero;stroke:none"
             d="M 0,0 C 0,0 -7.84,-1.106 -14.114,0 -13.917,-0.067 -7.522,-2.157 0,0" /></g><g
           transform="translate(472.9941,272.0762)"
           id="g198"><path
             id="path200"
             style="fill:#8a5e23;fill-opacity:1;fill-rule:nonzero;stroke:none"
             d="m 0,0 c 0,0 -9.675,2.944 -8.833,16.825 0,0 4.627,4.628 0,4.628 -3.684,0 -8.958,-0.266 -10.96,-0.375 -1.998,0.109 -7.271,0.375 -10.959,0.375 -4.624,0 0,-4.628 0,-4.628 C -29.911,2.944 -39.585,0 -39.585,0 c -2.734,-2.733 0,-6.31 0,-6.31 H 0 c 0,0 2.734,3.577 0,6.31" /></g><g
           transform="translate(473.5889,265.8672)"
           id="g202"><path
             id="path204"
             style="fill:#8a5e23;fill-opacity:1;fill-rule:nonzero;stroke:none"
             d="m 0,0 -19.736,0.759 v 0.05 l -0.648,-0.025 -0.65,0.025 V 0.759 L -40.771,0 c -6.08,0 0,-4.86 0,-4.86 H 0 C 0,-4.86 6.08,0 0,0" /></g><g
           transform="translate(464.1611,288.9014)"
           id="g206"><path
             id="path208"
             style="fill:#ffffff;fill-opacity:1;fill-rule:nonzero;stroke:none"
             d="m 0,0 h -18.945 c 0,0 15.698,-0.203 18.678,-1.991 2.981,-1.787 1.194,0.796 1.194,0.796 z" /></g><g
           transform="translate(433.4092,265.7666)"
           id="g210"><path
             id="path212"
             style="fill:#ffffff;fill-opacity:1;fill-rule:nonzero;stroke:none"
             d="m 0,0 21.146,-0.514 c 0,0 -20.065,0.595 -21.856,2.186 -1.788,1.59 -1.189,-0.794 -1.189,-0.794 z" /></g><g
           transform="translate(472.9941,272.0762)"
           id="g214"><path
             id="path216"
             style="fill:#ffffff;fill-opacity:1;fill-rule:nonzero;stroke:none"
             d="m 0,0 c 0,0 -22.583,-4.303 -39.585,0 0,0 17.969,-5.829 39.585,0" /></g><g
           transform="translate(460.5166,293.665)"
           id="g218"><path
             id="path220"
             style="fill:#ffffff;fill-opacity:1;fill-rule:nonzero;stroke:none"
             d="m 0,0 h -19.06 l 0.687,2.186 c 0,0 2.277,-1.987 18.373,-2.186" /></g><g
           transform="translate(457.4854,330.875)"
           id="g222"><path
             id="path224"
             style="fill:#ffffff;fill-opacity:1;fill-rule:nonzero;stroke:none"
             d="m 0,0 c -0.002,-2.274 -0.876,-4.233 -2.135,-5.153 1.709,0.228 3.05,2.419 3.053,5.09 C 0.92,2.496 -0.308,4.61 -1.911,4.99 -0.771,4.011 0.001,2.144 0,0" /></g><g
           transform="translate(556.2666,261.9502)"
           id="g226"><path
             id="path228"
             style="fill:#d3d2d2;fill-opacity:1;fill-rule:nonzero;stroke:none"
             d="m 0,0 c 0,-1.333 -13.751,-2.412 -30.715,-2.412 -16.963,0 -30.714,1.079 -30.714,2.412 0,1.332 13.751,2.412 30.714,2.412 C -13.751,2.412 0,1.332 0,0" /></g><g
           transform="translate(598.5762,252.3359)"
           id="g230"><path
             id="path232"
             style="fill:#261a44;fill-opacity:1;fill-rule:nonzero;stroke:none"
             d="m 0,0 0.051,0.061 0.747,0.1 0.051,-0.04 V -2.738 H 1.323 L 1.404,-2.697 3.505,-0.011 3.586,0.04 4.646,0.161 4.687,0.11 2.283,-2.799 1.99,-3.092 2.283,-3.415 3.879,-5.536 C 3.97,-5.657 4.232,-5.96 4.677,-5.96 c 0.04,0 0.081,0 0.121,0.01 L 4.839,-6.001 4.728,-6.688 4.667,-6.738 c -0.061,-0.01 -0.121,-0.01 -0.182,-0.01 -0.778,0 -1.253,0.686 -1.353,0.828 l -1.769,2.395 -0.08,0.04 H 0.849 V -6.667 L 0.798,-6.718 H 0.051 L 0,-6.667 Z" /></g><g
           transform="translate(604.3906,250.4971)"
           id="g234"><path
             id="path236"
             style="fill:#261a44;fill-opacity:1;fill-rule:nonzero;stroke:none"
             d="M 0,0 0.051,0.061 0.758,0.162 0.808,0.121 V -4.828 L 0.758,-4.879 H 0.051 L 0,-4.828 Z m -0.061,1.313 v 0.838 l 0.05,0.051 H 0.828 L 0.879,2.151 V 1.313 L 0.828,1.263 h -0.839 z" /></g><g
           transform="translate(606.7627,249.5576)"
           id="g238"><path
             id="path240"
             style="fill:#261a44;fill-opacity:1;fill-rule:nonzero;stroke:none"
             d="M 0,0 -0.252,0.949 -0.202,1.01 0.414,1.102 0.475,1.061 0.758,0.354 c 0.04,0.131 0.333,0.818 1.414,0.818 0.889,0 1.606,-0.596 1.606,-1.748 v -3.313 l -0.05,-0.05 H 3.021 l -0.051,0.05 v 3.152 C 2.97,0.132 2.414,0.444 1.839,0.444 1.616,0.444 1,0.263 0.809,0.212 V -3.889 L 0.758,-3.939 H 0.051 L 0,-3.889 Z" /></g><g
           transform="translate(614.8105,248.8203)"
           id="g242"><path
             id="path244"
             style="fill:#261a44;fill-opacity:1;fill-rule:nonzero;stroke:none"
             d="m 0,0 c 0,0.798 -0.404,1.182 -1.192,1.182 -0.687,0 -1.152,-0.394 -1.152,-1.182 0,-0.768 0.405,-1.172 1.152,-1.172 C -0.404,-1.172 0,-0.777 0,0 m -2.061,-1.748 c 0,0 -1.081,0.293 -1.081,1.748 0,1.172 0.717,1.839 1.899,1.839 h 1 L 0.868,2.07 0.929,2.03 1.03,1.475 0.989,1.404 0.303,1.212 C 0.636,1.01 0.798,0.484 0.798,-0.021 c 0,-1.111 -0.728,-1.868 -1.94,-1.868 -0.353,0 -0.646,0.05 -0.646,0.05 0,0 -0.061,-0.151 -0.061,-0.303 0,-0.404 0.222,-0.646 0.606,-0.646 h 0.627 c 0.979,0 1.484,-0.566 1.484,-1.333 0,-0.96 -0.949,-1.414 -1.898,-1.414 -0.981,0 -1.799,0.303 -2.122,0.97 l 0.02,0.07 0.607,0.272 0.07,-0.019 c 0,0 0.223,-0.567 1.404,-0.567 0.728,0 1.112,0.344 1.112,0.718 0,0.293 -0.233,0.575 -0.677,0.575 h -0.627 c -0.838,0 -1.273,0.465 -1.273,0.93 0,0.374 0.193,0.677 0.455,0.838" /></g><g
           transform="translate(638.5957,261.9502)"
           id="g246"><path
             id="path248"
             style="fill:#d3d2d2;fill-opacity:1;fill-rule:nonzero;stroke:none"
             d="m 0,0 c 0,-1.333 -13.753,-2.412 -30.716,-2.412 -16.964,0 -30.713,1.079 -30.713,2.412 0,1.332 13.749,2.412 30.713,2.412 C -13.753,2.412 0,1.332 0,0" /></g><g
           transform="translate(532.3018,322.4438)"
           id="g250"><path
             id="path252"
             style="fill:#8a5e23;fill-opacity:1;fill-rule:nonzero;stroke:none"
             d="M 0,0 -6.196,0.538 V 0.583 L -6.527,0.561 -6.861,0.583 V 0.538 L -13.058,0 c 0,-16.137 -4.649,-30.33 -4.649,-30.33 H 4.651 C 4.651,-30.33 0,-16.137 0,0" /></g><g
           transform="translate(530.3848,320.7173)"
           id="g254"><path
             id="path256"
             style="fill:#ffffff;fill-opacity:1;fill-rule:nonzero;stroke:none"
             d="m 0,0 h -0.604 c 0,0 -1.473,-13.46 1.892,-24.397 h 2.314 c 0,0 -3.997,7.921 -3.602,24.397" /></g><g
           transform="translate(545.3438,272.0762)"
           id="g258"><path
             id="path260"
             style="fill:#8a5e23;fill-opacity:1;fill-rule:nonzero;stroke:none"
             d="m 0,0 c 0,0 -9.675,2.944 -8.834,16.825 0,0 4.627,4.628 0,4.628 -3.684,0 -8.958,-0.266 -10.959,-0.375 -1.998,0.109 -7.272,0.375 -10.96,0.375 -4.623,0 0,-4.628 0,-4.628 C -29.911,2.944 -39.586,0 -39.586,0 c -2.734,-2.733 0,-6.31 0,-6.31 H 0 c 0,0 2.733,3.577 0,6.31" /></g><g
           transform="translate(545.9385,265.8672)"
           id="g262"><path
             id="path264"
             style="fill:#8a5e23;fill-opacity:1;fill-rule:nonzero;stroke:none"
             d="m 0,0 -19.737,0.759 v 0.05 l -0.648,-0.025 -0.65,0.025 V 0.759 L -40.772,0 c -6.08,0 0,-4.86 0,-4.86 H 0 C 0,-4.86 6.079,0 0,0" /></g><g
           transform="translate(536.5098,288.9014)"
           id="g266"><path
             id="path268"
             style="fill:#ffffff;fill-opacity:1;fill-rule:nonzero;stroke:none"
             d="m 0,0 h -18.944 c 0,0 15.698,-0.203 18.678,-1.991 2.981,-1.787 1.193,0.796 1.193,0.796 z" /></g><g
           transform="translate(505.7578,265.7666)"
           id="g270"><path
             id="path272"
             style="fill:#ffffff;fill-opacity:1;fill-rule:nonzero;stroke:none"
             d="m 0,0 21.146,-0.514 c 0,0 -20.065,0.595 -21.856,2.186 -1.788,1.59 -1.189,-0.794 -1.189,-0.794 z" /></g><g
           transform="translate(545.3438,272.0762)"
           id="g274"><path
             id="path276"
             style="fill:#ffffff;fill-opacity:1;fill-rule:nonzero;stroke:none"
             d="m 0,0 c 0,0 -22.583,-4.303 -39.586,0 0,0 17.969,-5.829 39.586,0" /></g><g
           transform="translate(532.8652,293.665)"
           id="g278"><path
             id="path280"
             style="fill:#ffffff;fill-opacity:1;fill-rule:nonzero;stroke:none"
             d="m 0,0 h -19.06 l 0.687,2.186 c 0,0 2.277,-1.987 18.373,-2.186" /></g><path
           id="path282"
           style="fill:#8a5e23;fill-opacity:1;fill-rule:nonzero;stroke:none"
           d="m 534.035,320.431 h -16.526 v 1.75 h 16.526 z" /><g
           transform="translate(535.6338,321.6636)"
           id="g284"><path
             id="path286"
             style="fill:#ffffff;fill-opacity:1;fill-rule:nonzero;stroke:none"
             d="m 0,0 c 0,0 -10.954,1.544 -19.722,0 0,0 8.992,3.078 19.722,0" /></g><g
           transform="translate(534.4229,323.7798)"
           id="g288"><path
             id="path290"
             style="fill:#8a5e23;fill-opacity:1;fill-rule:nonzero;stroke:none"
             d="M 0,0 H -7.67 -9.632 -17.3 c -0.892,0 -0.892,-0.754 -0.892,-0.754 0.358,-1.283 1.785,-1.357 1.785,-1.357 H -0.89 c 0,0 1.426,0.074 1.781,1.357 0,0 0,0.754 -0.891,0.754" /></g><g
           transform="translate(525.7939,336.2773)"
           id="g292"><path
             id="path294"
             style="fill:#8a5e23;fill-opacity:1;fill-rule:nonzero;stroke:none"
             d="m 0,0 h -1.042 c 0,0 -0.71,1.919 -0.779,3.781 0,0 -0.588,4.124 1.821,4.124 H 0.013 C 2.057,7.905 1.837,3.781 1.837,3.781 1.765,1.919 1.058,0 1.058,0 H 0.013 Z" /></g><g
           transform="translate(530.7324,341.1177)"
           id="g296"><path
             id="path298"
             style="fill:#8a5e23;fill-opacity:1;fill-rule:nonzero;stroke:none"
             d="M 0,0 C 0,0 -0.787,-3.879 -4.958,-4.014 -9.132,-3.879 -9.919,0 -9.919,0 c -0.841,-7.571 -10.095,-3.786 -10.095,-3.786 7.151,-4.627 7.992,-14.722 7.992,-14.722 H 2.104 c 0,0 0.841,10.095 7.992,14.722 0,0 -9.254,-3.785 -10.096,3.786" /></g><g
           transform="translate(532.4551,323.4531)"
           id="g300"><path
             id="path302"
             style="fill:#ffffff;fill-opacity:1;fill-rule:nonzero;stroke:none"
             d="M 0,0 C 0,0 -7.84,-1.106 -14.114,0 -13.917,-0.067 -7.522,-2.158 0,0" /></g><g
           transform="translate(614.4092,322.4438)"
           id="g304"><path
             id="path306"
             style="fill:#8a5e23;fill-opacity:1;fill-rule:nonzero;stroke:none"
             d="M 0,0 -6.197,0.538 V 0.583 L -6.529,0.561 -6.861,0.583 V 0.538 L -13.056,0 c 0,-16.137 -4.652,-30.33 -4.652,-30.33 H 4.65 C 4.65,-30.33 0,-16.137 0,0" /></g><g
           transform="translate(612.4902,320.7173)"
           id="g308"><path
             id="path310"
             style="fill:#ffffff;fill-opacity:1;fill-rule:nonzero;stroke:none"
             d="m 0,0 h -0.604 c 0,0 -1.473,-13.46 1.892,-24.397 h 2.314 c 0,0 -3.997,7.921 -3.602,24.397" /></g><g
           transform="translate(627.6729,272.0762)"
           id="g312"><path
             id="path314"
             style="fill:#8a5e23;fill-opacity:1;fill-rule:nonzero;stroke:none"
             d="m 0,0 c 0,0 -9.675,2.944 -8.834,16.825 0,0 4.627,4.628 0,4.628 -3.684,0 -8.958,-0.266 -10.959,-0.375 -1.998,0.109 -7.272,0.375 -10.96,0.375 -4.623,0 0,-4.628 0,-4.628 C -29.911,2.944 -39.586,0 -39.586,0 c -2.734,-2.733 0,-6.31 0,-6.31 H 0 c 0,0 2.733,3.577 0,6.31" /></g><g
           transform="translate(628.2676,265.8672)"
           id="g316"><path
             id="path318"
             style="fill:#8a5e23;fill-opacity:1;fill-rule:nonzero;stroke:none"
             d="m 0,0 -19.737,0.759 v 0.05 l -0.648,-0.025 -0.65,0.025 V 0.759 L -40.772,0 c -6.08,0 0,-4.86 0,-4.86 H 0 C 0,-4.86 6.079,0 0,0" /></g><g
           transform="translate(618.8389,288.9014)"
           id="g320"><path
             id="path322"
             style="fill:#ffffff;fill-opacity:1;fill-rule:nonzero;stroke:none"
             d="m 0,0 h -18.944 c 0,0 15.698,-0.203 18.678,-1.991 2.981,-1.787 1.193,0.796 1.193,0.796 z" /></g><g
           transform="translate(588.0869,265.7666)"
           id="g324"><path
             id="path326"
             style="fill:#ffffff;fill-opacity:1;fill-rule:nonzero;stroke:none"
             d="m 0,0 21.146,-0.514 c 0,0 -20.065,0.595 -21.856,2.186 -1.787,1.59 -1.189,-0.794 -1.189,-0.794 z" /></g><g
           transform="translate(627.6729,272.0762)"
           id="g328"><path
             id="path330"
             style="fill:#ffffff;fill-opacity:1;fill-rule:nonzero;stroke:none"
             d="m 0,0 c 0,0 -22.583,-4.303 -39.586,0 0,0 17.969,-5.829 39.586,0" /></g><g
           transform="translate(615.1943,293.665)"
           id="g332"><path
             id="path334"
             style="fill:#ffffff;fill-opacity:1;fill-rule:nonzero;stroke:none"
             d="m 0,0 h -19.06 l 0.687,2.186 c 0,0 2.277,-1.987 18.373,-2.186" /></g><path
           id="path336"
           style="fill:#8a5e23;fill-opacity:1;fill-rule:nonzero;stroke:none"
           d="m 616.145,320.431 h -16.526 v 1.75 h 16.526 z" /><g
           transform="translate(617.7412,321.6636)"
           id="g338"><path
             id="path340"
             style="fill:#ffffff;fill-opacity:1;fill-rule:nonzero;stroke:none"
             d="m 0,0 c 0,0 -10.952,1.544 -19.72,0 0,0 8.991,3.078 19.72,0" /></g><g
           transform="translate(616.5322,323.7798)"
           id="g342"><path
             id="path344"
             style="fill:#8a5e23;fill-opacity:1;fill-rule:nonzero;stroke:none"
             d="m 0,0 h -7.67 -1.962 -7.67 c -0.89,0 -0.89,-0.754 -0.89,-0.754 0.356,-1.283 1.783,-1.357 1.783,-1.357 h 15.518 c 0,0 1.425,0.074 1.782,1.357 0,0 0,0.754 -0.891,0.754" /></g><g
           transform="translate(612.8418,341.1177)"
           id="g346"><path
             id="path348"
             style="fill:#8a5e23;fill-opacity:1;fill-rule:nonzero;stroke:none"
             d="M 0,0 C 0,0 -0.789,-3.879 -4.961,-4.014 -9.133,-3.879 -9.921,0 -9.921,0 c -0.842,-7.571 -10.096,-3.786 -10.096,-3.786 7.152,-4.627 7.993,-14.722 7.993,-14.722 H 2.104 c 0,0 0.84,10.095 7.992,14.722 0,0 -9.255,-3.785 -10.096,3.786" /></g><g
           transform="translate(607.959,335.8599)"
           id="g350"><path
             id="path352"
             style="fill:#8a5e23;fill-opacity:1;fill-rule:nonzero;stroke:none"
             d="m 0,0 c 0,0 10.791,-0.897 14.988,1.472 0,0 -5.314,5.679 -14.988,5.679 H -0.155 C -9.829,7.151 -15.144,1.472 -15.144,1.472 -10.947,-0.897 -0.155,0 -0.155,0 Z" /></g><g
           transform="translate(609.3799,350.4243)"
           id="g354"><path
             id="path356"
             style="fill:#8a5e23;fill-opacity:1;fill-rule:nonzero;stroke:none"
             d="m 0,0 h -2.997 c 2.419,-5.258 -0.289,-8.413 -0.289,-8.413 h 3.575 c 0,0 -2.708,3.155 -0.289,8.413" /></g><g
           transform="translate(603.7393,348.6382)"
           id="g358"><path
             id="path360"
             style="fill:#8a5e23;fill-opacity:1;fill-rule:nonzero;stroke:none"
             d="m 0,0 -0.134,-2.994 c 5.361,2.182 8.392,-0.663 8.392,-0.663 l 0.159,3.572 C 8.417,-0.085 5.146,-2.65 0,0" /></g><g
           transform="translate(614.9385,323.4531)"
           id="g362"><path
             id="path364"
             style="fill:#ffffff;fill-opacity:1;fill-rule:nonzero;stroke:none"
             d="M 0,0 C 0,0 -7.841,-1.106 -14.114,0 -13.919,-0.067 -7.522,-2.158 0,0" /></g><g
           transform="translate(622.707,337.1089)"
           id="g366"><path
             id="path368"
             style="fill:#ffffff;fill-opacity:1;fill-rule:nonzero;stroke:none"
             d="M 0,0 C 0,0 -16.471,-1.246 -29.651,0 -29.24,-0.078 -15.802,-2.429 0,0" /></g><g
           transform="translate(336.0176,261.9502)"
           id="g370"><path
             id="path372"
             style="fill:#d3d2d2;fill-opacity:1;fill-rule:nonzero;stroke:none"
             d="m 0,0 c 0,-1.333 -13.752,-2.412 -30.715,-2.412 -16.964,0 -30.715,1.079 -30.715,2.412 0,1.332 13.751,2.412 30.715,2.412 C -13.752,2.412 0,1.332 0,0" /></g><g
           transform="translate(311.8311,322.4438)"
           id="g374"><path
             id="path376"
             style="fill:#8a5e23;fill-opacity:1;fill-rule:nonzero;stroke:none"
             d="M 0,0 -6.197,0.538 V 0.583 L -6.529,0.561 -6.862,0.583 V 0.538 L -13.057,0 c 0,-16.137 -4.651,-30.33 -4.651,-30.33 H 4.651 C 4.651,-30.33 0,-16.137 0,0" /></g><g
           transform="translate(309.9126,320.7173)"
           id="g378"><path
             id="path380"
             style="fill:#ffffff;fill-opacity:1;fill-rule:nonzero;stroke:none"
             d="m 0,0 h -0.604 c 0,0 -1.473,-13.46 1.892,-24.397 h 2.314 c 0,0 -3.996,7.921 -3.602,24.397" /></g><path
           id="path382"
           style="fill:#8a5e23;fill-opacity:1;fill-rule:nonzero;stroke:none"
           d="m 313.565,320.5 h -16.526 v 1.75 h 16.526 z" /><g
           transform="translate(313.3452,330.6104)"
           id="g384"><path
             id="path386"
             style="fill:#8a5e23;fill-opacity:1;fill-rule:nonzero;stroke:none"
             d="M 0,0 -1.127,-4.083 H -3.668 V 0 h -8.749 v -4.083 h -2.542 L -16.084,0 h -3.333 l 1.556,-8.943 H 1.775 L 3.331,0 Z" /></g><g
           transform="translate(315.1558,321.7324)"
           id="g388"><path
             id="path390"
             style="fill:#ffffff;fill-opacity:1;fill-rule:nonzero;stroke:none"
             d="m 0,0 c 0,0 -10.955,1.545 -19.722,0 0,0 8.991,3.078 19.722,0" /></g><g
           transform="translate(325.0947,272.0762)"
           id="g392"><path
             id="path394"
             style="fill:#8a5e23;fill-opacity:1;fill-rule:nonzero;stroke:none"
             d="m 0,0 c 0,0 -9.674,2.944 -8.833,16.825 0,0 4.626,4.628 0,4.628 -3.685,0 -8.961,-0.266 -10.959,-0.375 -2,0.109 -7.275,0.375 -10.96,0.375 -4.626,0 0,-4.628 0,-4.628 C -29.911,2.944 -39.585,0 -39.585,0 c -2.734,-2.733 0,-6.31 0,-6.31 H 0 c 0,0 2.734,3.577 0,6.31" /></g><g
           transform="translate(325.6895,265.8672)"
           id="g396"><path
             id="path398"
             style="fill:#8a5e23;fill-opacity:1;fill-rule:nonzero;stroke:none"
             d="m 0,0 -19.737,0.759 v 0.05 l -0.65,-0.025 -0.649,0.025 V 0.759 L -40.774,0 c -6.077,0 0,-4.86 0,-4.86 H 0 C 0,-4.86 6.078,0 0,0" /></g><g
           transform="translate(316.2617,288.9014)"
           id="g400"><path
             id="path402"
             style="fill:#ffffff;fill-opacity:1;fill-rule:nonzero;stroke:none"
             d="m 0,0 h -18.945 c 0,0 15.696,-0.203 18.677,-1.991 2.98,-1.787 1.192,0.796 1.192,0.796 z" /></g><g
           transform="translate(285.5093,265.7666)"
           id="g404"><path
             id="path406"
             style="fill:#ffffff;fill-opacity:1;fill-rule:nonzero;stroke:none"
             d="m 0,0 21.146,-0.514 c 0,0 -20.067,0.595 -21.856,2.186 -1.788,1.59 -1.192,-0.794 -1.192,-0.794 z" /></g><g
           transform="translate(325.0947,272.0762)"
           id="g408"><path
             id="path410"
             style="fill:#ffffff;fill-opacity:1;fill-rule:nonzero;stroke:none"
             d="m 0,0 c 0,0 -22.583,-4.303 -39.585,0 0,0 17.967,-5.829 39.585,0" /></g><g
           transform="translate(312.6157,293.665)"
           id="g412"><path
             id="path414"
             style="fill:#ffffff;fill-opacity:1;fill-rule:nonzero;stroke:none"
             d="m 0,0 h -19.061 l 0.688,2.186 c 0,0 2.279,-1.987 18.373,-2.186" /></g><g
           transform="translate(228.8667,322.3242)"
           id="g416"><path
             id="path418"
             style="fill:#8a5e23;fill-opacity:1;fill-rule:nonzero;stroke:none"
             d="M 0,0 C 0.824,0.754 1.616,-0.113 1.95,-0.268 2.298,-0.429 2.382,-0.509 2.382,-0.509 2.204,-0.493 1.798,-0.75 1.798,-0.75 1.022,-1.15 0.2,-0.984 -0.063,-0.628 -0.247,-0.376 -0.427,-0.281 -0.427,-0.281 -0.232,-0.284 0,0 0,0 m 2.004,-11.306 -0.016,0.011 c 0,0 3.137,-0.626 3.432,4.289 0,0 0.893,-4.101 -2.367,-4.675 l 0.158,-1.242 -7.066,-10.665 c 0,0 1.793,-4.682 3.096,-6.507 h 16.687 c 1.869,1.289 2.057,3.74 2.313,7.847 1.248,20.031 -7.59,26.006 -7.59,26.006 0.018,1.046 -2.092,6.521 -2.092,6.521 C 7.432,8.57 7.061,5.018 7.061,5.018 6.667,3.401 3.685,3.398 3.685,3.398 1.28,3.541 0.115,2.721 0.115,2.721 l -6.431,-2.826 c -1.945,-0.542 -3.358,-0.572 -3.358,-0.572 l -5.017,-2.798 -0.519,-2.974 c 0.7,-1.998 4.237,-3.418 4.237,-3.418 0.384,1.093 3.1,0.84 3.1,0.84 1.865,-1.181 6.573,-1.257 6.573,-1.257 0.898,-0.532 2.334,-0.853 3.304,-1.022" /></g><g
           transform="translate(226.7905,294.8135)"
           id="g420"><path
             id="path422"
             style="fill:#ffffff;fill-opacity:1;fill-rule:nonzero;stroke:none"
             d="m 0,0 c 0,0 10.244,15.376 7.542,21.408 0,0 3.786,-2.663 -5.753,-21.805 L 0.597,-1.392 Z" /></g><g
           transform="translate(215.124,314.1187)"
           id="g424"><path
             id="path426"
             style="fill:#ffffff;fill-opacity:1;fill-rule:nonzero;stroke:none"
             d="m 0,0 c 0,0 4.066,2.805 6.73,1.542 0,0 -5.328,0.142 -5.889,-2.523 z" /></g><g
           transform="translate(218.7446,252.3359)"
           id="g428"><path
             id="path430"
             style="fill:#261a44;fill-opacity:1;fill-rule:nonzero;stroke:none"
             d="m 0,0 0.05,0.061 0.748,0.1 0.051,-0.04 V -2.738 H 1.323 L 1.404,-2.697 3.505,-0.011 3.586,0.04 4.646,0.161 4.687,0.11 2.283,-2.799 1.99,-3.092 2.283,-3.415 3.879,-5.536 C 3.97,-5.657 4.232,-5.96 4.677,-5.96 c 0.04,0 0.081,0 0.121,0.01 l 0.04,-0.051 -0.11,-0.687 -0.061,-0.05 c -0.061,-0.01 -0.122,-0.01 -0.182,-0.01 -0.778,0 -1.253,0.686 -1.354,0.828 l -1.767,2.395 -0.081,0.04 H 0.849 V -6.667 L 0.798,-6.718 H 0.05 L 0,-6.667 Z" /></g><g
           transform="translate(224.5591,249.5576)"
           id="g432"><path
             id="path434"
             style="fill:#261a44;fill-opacity:1;fill-rule:nonzero;stroke:none"
             d="m 0,0 -0.252,0.949 0.05,0.061 0.617,0.092 0.06,-0.041 0.283,-0.707 c 0.04,0.131 0.333,0.818 1.414,0.818 0.889,0 1.606,-0.596 1.606,-1.748 v -3.313 l -0.05,-0.05 H 3.021 l -0.051,0.05 v 3.152 C 2.97,0.132 2.415,0.444 1.838,0.444 1.616,0.444 1,0.263 0.808,0.212 v -4.101 l -0.05,-0.05 H 0.051 L 0,-3.889 Z" /></g><g
           transform="translate(229.8188,250.4971)"
           id="g436"><path
             id="path438"
             style="fill:#261a44;fill-opacity:1;fill-rule:nonzero;stroke:none"
             d="M 0,0 0.05,0.061 0.757,0.162 0.808,0.121 V -4.828 L 0.757,-4.879 H 0.05 L 0,-4.828 Z M -0.061,1.313 V 2.151 L -0.01,2.202 H 0.828 L 0.878,2.151 V 1.313 L 0.828,1.263 H -0.01 Z" /></g><g
           transform="translate(234.9385,248.8203)"
           id="g440"><path
             id="path442"
             style="fill:#261a44;fill-opacity:1;fill-rule:nonzero;stroke:none"
             d="m 0,0 c 0,0.798 -0.404,1.182 -1.192,1.182 -0.687,0 -1.151,-0.394 -1.151,-1.182 0,-0.768 0.404,-1.172 1.151,-1.172 C -0.404,-1.172 0,-0.777 0,0 m -2.061,-1.748 c 0,0 -1.081,0.293 -1.081,1.748 0,1.172 0.718,1.839 1.9,1.839 h 1 L 0.869,2.07 0.93,2.03 1.03,1.475 0.99,1.404 0.303,1.212 C 0.637,1.01 0.798,0.484 0.798,-0.021 c 0,-1.111 -0.727,-1.868 -1.939,-1.868 -0.354,0 -0.647,0.05 -0.647,0.05 0,0 -0.061,-0.151 -0.061,-0.303 0,-0.404 0.223,-0.646 0.607,-0.646 h 0.626 c 0.98,0 1.485,-0.566 1.485,-1.333 0,-0.96 -0.95,-1.414 -1.899,-1.414 -0.98,0 -1.798,0.303 -2.121,0.97 l 0.02,0.07 0.606,0.272 0.07,-0.019 c 0,0 0.223,-0.567 1.405,-0.567 0.727,0 1.111,0.344 1.111,0.718 0,0.293 -0.232,0.575 -0.677,0.575 h -0.626 c -0.839,0 -1.273,0.465 -1.273,0.93 0,0.374 0.192,0.677 0.454,0.838" /></g><g
           transform="translate(237.0669,252.7998)"
           id="g444"><path
             id="path446"
             style="fill:#261a44;fill-opacity:1;fill-rule:nonzero;stroke:none"
             d="m 0,0 0.051,0.061 0.707,0.101 0.05,-0.04 v -2.536 l -0.05,-0.444 c 0.08,0.181 0.434,0.788 1.454,0.788 0.889,0 1.556,-0.596 1.556,-1.748 V -7.131 L 3.717,-7.182 H 3.01 l -0.05,0.051 v 3.152 c 0,0.869 -0.495,1.181 -1.091,1.181 -0.223,0 -0.879,-0.181 -1.061,-0.232 V -7.131 L 0.758,-7.182 H 0.051 L 0,-7.131 Z" /></g><g
           transform="translate(242.4678,249.8809)"
           id="g448"><path
             id="path450"
             style="fill:#261a44;fill-opacity:1;fill-rule:nonzero;stroke:none"
             d="m 0,0 h -0.545 l -0.051,0.051 v 0.626 l 0.051,0.051 h 0.586 l 0.09,1.02 0.051,0.061 0.576,0.08 0.05,-0.04 V 0.728 H 2.485 L 2.536,0.677 2.344,0.051 2.273,0 H 0.808 v -2.435 c 0,-0.686 0.334,-1.202 0.889,-1.202 0.384,0 0.748,0.314 0.748,0.314 l 0.07,-0.01 0.314,-0.576 -0.021,-0.07 C 2.475,-4.212 2.081,-4.384 1.626,-4.384 0.707,-4.384 0,-3.758 0,-2.495 Z" /></g><g
           transform="translate(255.562,271.6348)"
           id="g452"><path
             id="path454"
             style="fill:#8a5e23;fill-opacity:1;fill-rule:nonzero;stroke:none"
             d="m 0,0 c 0,0 -9.674,2.944 -8.833,16.825 0,0 4.626,4.627 0,4.627 -3.685,0 -8.961,-0.266 -10.959,-0.375 -2,0.109 -7.275,0.375 -10.96,0.375 -4.626,0 0,-4.627 0,-4.627 C -29.911,2.944 -39.585,0 -39.585,0 c -2.734,-2.734 0,-6.31 0,-6.31 H 0 c 0,0 2.734,3.576 0,6.31" /></g><g
           transform="translate(256.1572,265.4248)"
           id="g456"><path
             id="path458"
             style="fill:#8a5e23;fill-opacity:1;fill-rule:nonzero;stroke:none"
             d="m 0,0 -19.738,0.76 v 0.049 l -0.649,-0.025 -0.649,0.025 V 0.76 L -40.774,0 c -6.078,0 0,-4.86 0,-4.86 H 0 C 0,-4.86 6.078,0 0,0" /></g><g
           transform="translate(246.729,288.46)"
           id="g460"><path
             id="path462"
             style="fill:#ffffff;fill-opacity:1;fill-rule:nonzero;stroke:none"
             d="m 0,0 h -18.945 c 0,0 15.696,-0.204 18.677,-1.991 2.981,-1.788 1.192,0.795 1.192,0.795 z" /></g><g
           transform="translate(215.9766,265.3252)"
           id="g464"><path
             id="path466"
             style="fill:#ffffff;fill-opacity:1;fill-rule:nonzero;stroke:none"
             d="m 0,0 21.146,-0.515 c 0,0 -20.067,0.595 -21.856,2.186 -1.788,1.591 -1.192,-0.794 -1.192,-0.794 z" /></g><g
           transform="translate(255.562,271.6348)"
           id="g468"><path
             id="path470"
             style="fill:#ffffff;fill-opacity:1;fill-rule:nonzero;stroke:none"
             d="m 0,0 c 0,0 -22.583,-4.304 -39.585,0 0,0 17.967,-5.83 39.585,0" /></g><g
           transform="translate(243.083,293.2236)"
           id="g472"><path
             id="path474"
             style="fill:#ffffff;fill-opacity:1;fill-rule:nonzero;stroke:none"
             d="m 0,0 h -17.378 l -0.995,2.185 c 0,0 2.279,-1.987 18.373,-2.185" /></g></g></g></g></svg>